<?xml version="1.0" encoding="UTF-8" standalone="no"?>
<!DOCTYPE svg PUBLIC "-//W3C//DTD SVG 1.1//EN"
 "http://www.w3.org/Graphics/SVG/1.1/DTD/svg11.dtd">
<!-- Generated by graphviz version 2.43.0 (0)
 -->
<!-- Title: %3 Pages: 1 -->
<svg width="1142pt" height="188pt"
 viewBox="0.00 0.00 1141.71 188.00" xmlns="http://www.w3.org/2000/svg" xmlns:xlink="http://www.w3.org/1999/xlink">
<g id="graph0" class="graph" transform="scale(1 1) rotate(0) translate(4 184)">
<title>%3</title>
<polygon fill="white" stroke="transparent" points="-4,4 -4,-184 1137.71,-184 1137.71,4 -4,4"/>
<!-- /home/sfa/boulot/fano.me/terraform/terraform&#45;fanocloud&#45;aws/prod -->
<g id="node1" class="node">
<title>/home/sfa/boulot/fano.me/terraform/terraform&#45;fanocloud&#45;aws/prod</title>
<ellipse fill="none" stroke="black" cx="317.17" cy="-162" rx="317.34" ry="18"/>
<text text-anchor="middle" x="317.17" y="-158.3" font-family="Times,serif" font-size="14.00">/home/sfa/boulot/fano.me/terraform/terraform&#45;fanocloud&#45;aws/prod</text>
</g>
<!-- datastores/terraform&#45;aws&#45;rds -->
<g id="node2" class="node">
<title>datastores/terraform&#45;aws&#45;rds</title>
<ellipse fill="none" stroke="black" cx="660.17" cy="-90" rx="147.57" ry="18"/>
<text text-anchor="middle" x="660.17" y="-86.3" font-family="Times,serif" font-size="14.00">datastores/terraform&#45;aws&#45;rds</text>
</g>
<!-- services/terraform&#45;aws&#45;vpc -->
<g id="node3" class="node">
<title>services/terraform&#45;aws&#45;vpc</title>
<ellipse fill="none" stroke="black" cx="836.17" cy="-18" rx="137.28" ry="18"/>
<text text-anchor="middle" x="836.17" y="-14.3" font-family="Times,serif" font-size="14.00">services/terraform&#45;aws&#45;vpc</text>
</g>
<!-- datastores/terraform&#45;aws&#45;rds&#45;&gt;services/terraform&#45;aws&#45;vpc -->
<g id="edge1" class="edge">
<title>datastores/terraform&#45;aws&#45;rds&#45;&gt;services/terraform&#45;aws&#45;vpc</title>
<path fill="none" stroke="black" d="M701.44,-72.59C726.59,-62.58 758.93,-49.72 785.61,-39.11"/>
<polygon fill="black" stroke="black" points="787.17,-42.26 795.17,-35.31 784.58,-35.75 787.17,-42.26"/>
</g>
<!-- services/terraform&#45;aws&#45;efs -->
<g id="node4" class="node">
<title>services/terraform&#45;aws&#45;efs</title>
<ellipse fill="none" stroke="black" cx="999.17" cy="-90" rx="134.58" ry="18"/>
<text text-anchor="middle" x="999.17" y="-86.3" font-family="Times,serif" font-size="14.00">services/terraform&#45;aws&#45;efs</text>
</g>
<!-- services/terraform&#45;aws&#45;efs&#45;&gt;services/terraform&#45;aws&#45;vpc -->
<g id="edge2" class="edge">
<title>services/terraform&#45;aws&#45;efs&#45;&gt;services/terraform&#45;aws&#45;vpc</title>
<path fill="none" stroke="black" d="M960.96,-72.59C937.86,-62.67 908.24,-49.95 883.65,-39.39"/>
<polygon fill="black" stroke="black" points="884.72,-36.04 874.15,-35.31 881.96,-42.47 884.72,-36.04"/>
</g>
<!-- services/terraform&#45;aws&#45;wordpress&#45;ha -->
<g id="node5" class="node">
<title>services/terraform&#45;aws&#45;wordpress&#45;ha</title>
<ellipse fill="none" stroke="black" cx="836.17" cy="-162" rx="183.87" ry="18"/>
<text text-anchor="middle" x="836.17" y="-158.3" font-family="Times,serif" font-size="14.00">services/terraform&#45;aws&#45;wordpress&#45;ha</text>
</g>
<!-- services/terraform&#45;aws&#45;wordpress&#45;ha&#45;&gt;datastores/terraform&#45;aws&#45;rds -->
<g id="edge4" class="edge">
<title>services/terraform&#45;aws&#45;wordpress&#45;ha&#45;&gt;datastores/terraform&#45;aws&#45;rds</title>
<path fill="none" stroke="black" d="M794.46,-144.41C769.38,-134.44 737.3,-121.67 710.77,-111.13"/>
<polygon fill="black" stroke="black" points="711.86,-107.79 701.28,-107.35 709.28,-114.3 711.86,-107.79"/>
</g>
<!-- services/terraform&#45;aws&#45;wordpress&#45;ha&#45;&gt;services/terraform&#45;aws&#45;vpc -->
<g id="edge3" class="edge">
<title>services/terraform&#45;aws&#45;wordpress&#45;ha&#45;&gt;services/terraform&#45;aws&#45;vpc</title>
<path fill="none" stroke="black" d="M836.17,-143.87C836.17,-119.67 836.17,-75.21 836.17,-46.39"/>
<polygon fill="black" stroke="black" points="839.67,-46.19 836.17,-36.19 832.67,-46.19 839.67,-46.19"/>
</g>
<!-- services/terraform&#45;aws&#45;wordpress&#45;ha&#45;&gt;services/terraform&#45;aws&#45;efs -->
<g id="edge5" class="edge">
<title>services/terraform&#45;aws&#45;wordpress&#45;ha&#45;&gt;services/terraform&#45;aws&#45;efs</title>
<path fill="none" stroke="black" d="M875.21,-144.23C898.16,-134.38 927.34,-121.85 951.63,-111.42"/>
<polygon fill="black" stroke="black" points="953.2,-114.55 961.01,-107.39 950.44,-108.12 953.2,-114.55"/>
</g>
</g>
</svg>
